<?xml version="1.0" standalone="no"?>
<!DOCTYPE svg PUBLIC "-//W3C//DTD SVG 20010904//EN"
 "http://www.w3.org/TR/2001/REC-SVG-20010904/DTD/svg10.dtd">
<svg version="1.0" xmlns="http://www.w3.org/2000/svg"
 width="1024.000000pt" height="648.000000pt" viewBox="0 0 1024.000000 648.000000"
 preserveAspectRatio="xMidYMid meet">

<g transform="translate(0.000000,648.000000) scale(0.100000,-0.100000)"
fill="#000000" stroke="none">
<path d="M6220 5635 c0 -8 9 -15 20 -15 23 0 27 -15 5 -24 -8 -3 -15 -1 -15 5
0 6 -5 9 -11 7 -12 -4 -37 -69 -38 -97 -1 -46 -20 -97 -22 -60 -1 21 -51 -142
-52 -171 -1 -14 -4 -27 -8 -30 -4 -3 -9 -12 -11 -20 -2 -8 -8 -20 -14 -27 -14
-15 -27 -95 -17 -102 12 -9 33 -59 33 -80 0 -24 -29 -36 -37 -15 -3 9 0 20 7
24 8 5 9 9 1 14 -6 4 -11 17 -11 29 -1 21 -1 21 -15 3 -8 -11 -18 -41 -21 -68
-4 -27 -11 -45 -16 -42 -7 4 -8 -13 -4 -47 3 -30 2 -43 -2 -29 l-8 24 -11 -29
c-24 -62 -27 -75 -35 -160 -3 -26 -17 -35 -19 -12 -1 6 -5 -1 -9 -18 -4 -16
-11 -38 -15 -47 -4 -11 -3 -18 3 -18 6 0 12 6 15 13 2 6 3 4 1 -7 -1 -10 2
-30 7 -44 9 -23 5 -48 -26 -147 -2 -5 -4 -2 -4 8 -1 20 -27 23 -34 5 -4 -10
-8 -9 -17 2 -9 12 -10 5 -6 -30 4 -31 3 -39 -3 -25 -10 22 -13 18 -30 -48 -5
-22 -6 -35 0 -32 5 4 9 1 9 -4 0 -6 -6 -11 -13 -11 -7 0 -20 -21 -29 -47 -31
-90 -31 -90 -2 -97 15 -4 32 -2 37 3 6 6 18 11 26 10 11 0 12 -2 3 -6 -6 -2
-10 -9 -6 -14 3 -5 -3 -9 -13 -9 -15 0 -16 -2 -3 -10 23 -15 27 -12 34 16 6
23 10 25 39 19 37 -8 60 -25 33 -25 -9 0 -14 -5 -11 -10 4 -6 11 -8 16 -5 5 4
9 2 9 -4 0 -18 -21 -23 -38 -9 -30 26 -40 29 -35 10 4 -18 69 -52 98 -52 8 0
15 -4 15 -8 0 -12 91 -61 121 -66 13 -2 23 -8 22 -14 -1 -6 24 -9 63 -8 65 1
65 1 60 -24 -4 -14 -8 -31 -10 -39 -3 -17 49 -65 82 -75 12 -4 20 -12 16 -17
-3 -6 5 -7 23 -3 23 6 26 5 16 -7 -9 -11 -6 -20 12 -41 15 -18 25 -23 28 -15
3 7 6 6 6 -4 1 -9 8 -22 17 -29 8 -8 41 -46 73 -86 36 -45 63 -69 70 -65 6 4
9 15 5 24 -3 9 -11 14 -18 10 -7 -4 -7 -1 1 9 7 8 10 18 7 21 -4 4 -1 20 6 37
9 22 19 30 37 30 13 0 22 3 19 8 -9 15 22 42 45 40 28 -2 35 -35 9 -43 -19 -6
-45 -45 -29 -45 6 0 4 -7 -5 -15 -8 -8 -22 -15 -31 -15 -16 0 -32 -26 -22 -36
9 -9 102 60 102 76 0 9 8 14 20 13 20 -2 99 50 90 59 -3 2 14 14 38 26 82 41
110 86 61 98 -35 9 -28 38 11 41 19 1 25 -1 16 -6 -10 -7 -8 -13 10 -29 12
-12 26 -19 32 -15 5 3 3 10 -4 15 -11 7 -9 8 4 4 22 -7 66 19 45 27 -9 4 -9 6
2 6 17 1 122 66 116 72 -2 2 -6 22 -10 44 -4 25 -3 35 2 26 6 -8 17 -11 31 -6
24 7 29 -10 6 -19 -19 -7 -20 -26 -2 -26 19 0 86 52 87 68 0 6 5 13 10 13 6 1
15 2 20 3 6 0 14 6 18 12 4 6 16 14 27 19 19 7 19 8 -5 15 -17 6 -19 8 -7 9
10 1 20 8 23 16 4 10 11 12 23 5 13 -7 29 -1 63 23 42 30 45 34 32 52 -13 17
-13 21 3 32 9 7 24 13 32 13 10 0 12 -3 5 -8 -11 -7 -27 -42 -19 -42 2 0 16 5
30 12 19 9 24 16 19 32 -6 19 -5 19 11 6 15 -12 19 -11 36 10 10 14 19 30 19
35 0 6 4 5 8 -2 5 -9 17 -5 40 13 18 14 29 31 25 36 -4 8 0 9 11 5 13 -5 32 5
65 31 25 21 54 42 64 45 24 9 21 22 -10 62 -19 24 -30 30 -35 22 -5 -8 -8 -5
-8 8 -1 30 -43 76 -74 79 -15 1 -41 17 -59 34 -18 18 -39 32 -46 32 -7 0 -10
4 -7 9 3 4 -3 16 -14 26 -21 19 -27 45 -10 45 6 0 10 -6 10 -14 0 -15 27 -29
40 -21 4 3 10 -4 13 -15 3 -11 1 -18 -4 -14 -5 3 -9 1 -9 -5 0 -16 18 -22 26
-9 6 9 10 5 14 -12 6 -24 40 -42 40 -21 0 6 -59 71 -130 143 -114 115 -132
131 -141 115 -14 -23 -32 -12 -19 13 7 13 6 21 -5 30 -13 10 -15 8 -15 -14 0
-14 -4 -26 -8 -26 -5 0 -8 13 -7 30 1 23 -7 38 -34 63 -61 55 -93 77 -104 70
-6 -4 -8 0 -4 10 3 10 2 17 -3 17 -5 0 -42 25 -82 55 -40 30 -75 50 -76 44 -2
-5 8 -19 24 -31 23 -19 25 -23 10 -28 -14 -5 -8 -12 28 -35 60 -38 61 -76 2
-66 -5 1 -6 -5 -3 -13 3 -8 1 -17 -6 -20 -9 -3 -9 -5 1 -5 6 -1 21 8 33 20 25
25 62 19 90 -14 13 -15 18 -18 19 -8 0 11 3 12 11 4 12 -12 1 -37 -38 -86 -13
-16 -23 -33 -23 -39 0 -6 15 8 33 30 25 31 39 40 65 40 31 0 36 -6 33 -40 -1
-10 2 -18 8 -18 5 0 16 -14 25 -30 8 -17 10 -28 5 -25 -8 6 -13 -8 -10 -27 0
-5 -4 -8 -9 -8 -6 0 -10 4 -10 8 0 5 -13 24 -30 42 -16 18 -30 30 -30 25 0 -5
10 -19 21 -31 21 -23 20 -54 -1 -54 -6 0 -22 11 -35 24 -14 14 -27 21 -30 16
-3 -4 8 -19 24 -33 30 -25 30 -25 10 -43 -15 -13 -22 -15 -31 -6 -7 7 -29 12
-51 12 -25 0 -36 4 -31 11 4 7 19 8 38 5 l31 -6 -32 29 c-33 30 -42 51 -23 51
6 0 10 6 10 13 0 6 -13 -3 -29 -20 -16 -18 -31 -33 -35 -33 -13 0 -5 28 9 34
8 3 15 10 15 16 0 6 -4 9 -9 5 -12 -7 -57 56 -53 74 3 11 1 12 -10 4 -7 -6
-17 -13 -23 -15 -5 -1 -9 -8 -7 -14 1 -7 -7 -14 -18 -17 -17 -4 -19 -1 -16 19
4 21 2 24 -15 19 -14 -5 -17 -3 -13 9 7 19 25 21 42 4 8 -8 12 -8 12 -1 0 6
-11 18 -25 27 -14 9 -25 12 -25 8 0 -5 -18 -6 -40 -2 -22 4 -50 5 -63 3 -17
-3 -24 0 -24 11 0 13 9 15 42 12 33 -3 45 0 64 20 25 26 22 31 -9 12 -16 -10
-24 -10 -38 -1 -9 7 -32 20 -51 28 -28 12 -36 13 -43 3 -14 -22 -9 -28 25 -28
17 0 40 -7 50 -14 15 -12 12 -13 -28 -9 -40 5 -46 3 -54 -18 -5 -13 -10 -20
-10 -15 -1 6 -14 -11 -31 -37 -16 -26 -36 -47 -45 -47 -8 0 -15 -4 -15 -10 0
-5 -9 -10 -20 -10 -11 0 -20 5 -20 10 0 6 -7 10 -16 10 -9 0 -18 9 -21 19 -3
12 -11 17 -19 14 -8 -3 -14 0 -14 6 0 6 7 11 15 11 8 0 15 7 15 15 0 17 -16
21 -22 5 -2 -6 -13 -12 -26 -15 -19 -3 -25 2 -34 26 -6 16 -15 28 -22 26 -12
-5 -12 -6 -1 -50 4 -16 3 -27 -3 -27 -6 0 -12 12 -14 27 -2 16 -12 32 -25 39
-13 6 -21 13 -18 16 3 3 -6 17 -19 31 -19 21 -35 27 -68 28 -24 1 -46 1 -50 0
-9 -1 -16 29 -20 79 -2 26 -8 36 -23 39 -37 6 -49 44 -12 39 12 -2 22 -10 22
-18 0 -10 10 -15 30 -15 17 0 30 -4 30 -10 0 -5 -6 -9 -15 -8 -8 2 -5 -2 8 -9
12 -6 22 -17 22 -25 0 -7 8 -13 17 -13 13 0 14 3 5 12 -19 19 -14 49 8 55 29
8 24 19 -7 18 -23 0 -28 4 -28 25 0 22 5 25 37 28 29 2 46 -3 73 -23 30 -24
33 -29 20 -42 -8 -8 -15 -22 -14 -31 0 -14 2 -14 6 -2 19 47 86 43 116 -7 15
-26 16 -36 6 -54 -9 -18 -9 -21 4 -16 10 4 13 0 10 -13 -3 -10 0 -21 6 -24 11
-7 15 12 13 69 -1 27 0 26 10 -8 8 -29 7 -46 -2 -65 l-11 -26 26 26 c35 36 70
43 100 21 13 -10 25 -23 25 -30 0 -29 16 -18 16 12 0 21 -4 31 -12 28 -7 -2
-15 1 -19 8 -6 8 -1 11 17 7 17 -3 29 1 36 12 9 16 6 17 -31 13 -33 -4 -48 0
-70 17 -25 20 -28 28 -25 66 2 24 0 44 -3 44 -4 0 -9 6 -12 14 -3 8 1 13 11
13 45 0 57 3 44 12 -16 9 -6 61 12 61 6 0 22 3 36 6 l25 5 -23 -13 c-12 -8
-19 -17 -16 -21 4 -4 1 -7 -7 -7 -8 0 -4 -7 9 -16 13 -9 26 -13 29 -10 3 3 15
-1 27 -9 26 -19 36 -19 36 0 0 8 9 15 20 15 27 0 25 -8 -6 -35 -17 -14 -22
-25 -15 -29 6 -4 11 -2 11 5 0 8 4 8 15 -1 12 -10 15 -9 15 5 0 9 9 19 20 22
11 3 20 9 20 13 0 14 -56 34 -87 31 -20 -1 -33 2 -33 9 0 7 -7 10 -16 6 -8 -3
-12 -2 -9 4 3 6 18 7 33 4 l27 -6 -30 21 c-16 12 -44 26 -62 31 -17 6 -34 17
-37 25 -3 8 -16 15 -28 14 -22 -1 -22 -1 2 -9 l25 -7 -29 -12 c-37 -15 -134
-23 -141 -11 -3 4 -2 15 1 24 7 17 64 23 64 6 0 -5 7 -10 15 -10 8 0 15 4 15
9 0 5 3 17 7 27 4 11 2 15 -8 12 -7 -2 -29 6 -47 19 -19 12 -38 20 -43 17 -5
-3 -9 -1 -9 4 0 11 -60 38 -74 34 -5 -2 -12 1 -15 5 -12 17 -57 40 -73 37 -10
-1 -18 2 -18 7 0 5 -19 7 -42 4 -35 -3 -37 -3 -13 4 35 9 36 8 -77 45 -12 3
-18 0 -18 -9z m50 -60 c10 -12 10 -15 -4 -15 -9 0 -16 7 -16 15 0 8 2 15 4 15
2 0 9 -7 16 -15z m-56 -39 c-3 -14 -11 -26 -16 -26 -5 0 -7 6 -4 13 3 6 9 20
12 30 10 27 16 13 8 -17z m206 14 c0 -5 7 -10 15 -10 12 0 13 -4 4 -19 -9 -14
-23 -18 -61 -16 -31 1 -53 7 -58 16 -8 11 -1 15 35 17 25 2 45 7 45 13 0 5 5
9 10 9 6 0 10 -4 10 -10z m-183 -32 c-3 -8 -6 -5 -6 6 -1 11 2 17 5 13 3 -3 4
-12 1 -19z m348 -48 c3 -5 -1 -10 -9 -10 -9 0 -16 5 -16 10 0 6 4 10 9 10 6 0
13 -4 16 -10z m-350 -68 c-3 -8 -1 -20 5 -27 8 -10 6 -15 -10 -20 -24 -8 -55
14 -32 22 18 7 15 23 -5 23 -14 0 -14 2 2 20 14 16 21 17 32 8 8 -6 11 -18 8
-26z m-78 -14 c-3 -8 -6 -5 -6 6 -1 11 2 17 5 13 3 -3 4 -12 1 -19z m436 -15
c-7 -2 -19 -2 -25 0 -7 3 -2 5 12 5 14 0 19 -2 13 -5z m-163 -30 c3 -3 -16 -4
-42 -2 -25 2 -44 1 -42 -3 4 -6 -54 -24 -68 -20 -4 1 -5 -5 -2 -13 4 -10 0
-15 -15 -15 -12 0 -21 5 -21 10 0 6 4 10 8 10 5 0 18 9 30 20 12 12 22 18 22
15 0 -3 8 -1 18 4 16 10 100 5 112 -6z m121 -9 c13 2 30 6 38 8 7 1 16 -3 18
-10 3 -9 -2 -13 -13 -12 -39 4 -50 0 -31 -11 14 -8 15 -14 7 -24 -15 -18 -40
-8 -40 16 0 15 -7 19 -34 19 -19 0 -37 -4 -40 -9 -6 -9 -92 -9 -101 1 -3 3 18
8 46 11 29 4 61 13 73 21 18 12 23 12 37 0 9 -8 27 -13 40 -10z m129 -4 c0 -5
-5 -10 -11 -10 -5 0 -7 5 -4 10 3 6 8 10 11 10 2 0 4 -4 4 -10z m-545 -36 c-8
-16 -15 -23 -15 -16 0 17 20 55 26 49 2 -2 -2 -17 -11 -33z m22 -16 c-3 -8 -6
-5 -6 6 -1 11 2 17 5 13 3 -3 4 -12 1 -19z m183 12 c0 -5 -4 -10 -10 -10 -5 0
-10 5 -10 10 0 6 5 10 10 10 6 0 10 -4 10 -10z m140 0 c0 -5 -4 -10 -10 -10
-5 0 -10 5 -10 10 0 6 5 10 10 10 6 0 10 -4 10 -10z m196 -44 c-3 -11 -6 -27
-6 -33 0 -7 -7 -13 -15 -13 -9 0 -15 9 -15 25 0 14 5 25 11 25 6 0 9 7 6 14
-4 10 -1 13 9 9 10 -4 14 -13 10 -27z m-36 14 c0 -5 -4 -10 -10 -10 -5 0 -10
5 -10 10 0 6 5 10 10 10 6 0 10 -4 10 -10z m-25 -20 c11 -12 15 -26 10 -37 -6
-16 -8 -15 -16 5 -5 13 -18 26 -29 29 -11 3 -17 9 -14 14 9 15 30 10 49 -11z
m-451 -26 c20 -8 11 -24 -14 -24 -13 0 -17 5 -14 15 7 17 7 17 28 9z m63 -16
c-3 -8 -6 -5 -6 6 -1 11 2 17 5 13 3 -3 4 -12 1 -19z m450 -32 c4 -8 17 -15
27 -17 28 -6 32 -29 5 -29 -25 0 -59 26 -59 47 0 17 17 17 27 -1z m-410 -43
c-3 -10 -5 -4 -5 12 0 17 2 24 5 18 2 -7 2 -21 0 -30z m923 -21 c3 -3 -8 -2
-25 2 -16 4 -34 12 -40 17 -5 5 6 4 25 -2 19 -7 37 -14 40 -17z m-843 -28 c-3
-3 -12 -4 -19 -1 -8 3 -5 6 6 6 11 1 17 -2 13 -5z m73 -13 c0 -18 -17 -20 -36
-6 -18 14 -18 14 9 15 15 0 27 -4 27 -9z m845 -13 c37 -25 44 -42 20 -52 -10
-3 -15 1 -15 13 0 10 -11 24 -25 31 -14 7 -25 17 -25 22 0 12 7 10 45 -14z
m-955 -2 c0 -7 -9 -16 -20 -19 -22 -6 -29 18 -7 26 21 9 27 7 27 -7z m53 -13
c-7 -2 -21 -2 -30 0 -10 3 -4 5 12 5 17 0 24 -2 18 -5z m-276 -69 c3 -8 0 -21
-7 -27 -10 -9 -11 -9 -6 3 5 9 2 8 -7 -2 -23 -29 -37 -22 -24 12 12 32 34 40
44 14z m793 -4 c0 -11 -4 -20 -8 -20 -4 0 -8 9 -8 20 0 11 4 20 8 20 4 0 8 -9
8 -20z m-69 -30 c5 0 9 5 9 10 0 6 8 10 17 10 13 0 14 -3 5 -12 -9 -9 -7 -17
10 -35 21 -23 48 -31 48 -15 0 5 17 9 38 10 20 1 49 4 64 7 29 7 49 -15 41
-45 -3 -13 3 -19 24 -23 18 -4 34 -16 43 -34 8 -15 22 -33 30 -40 13 -11 13
-13 0 -14 -8 -1 -18 -1 -22 0 -5 0 -8 -4 -8 -9 0 -7 13 -9 33 -5 24 5 37 2 46
-9 7 -9 16 -14 20 -11 4 2 9 -20 10 -50 2 -44 -1 -55 -14 -55 -9 0 -18 -7 -21
-15 -7 -16 -59 -45 -82 -45 -23 0 -62 40 -62 63 0 15 -5 18 -25 15 -13 -3 -22
-1 -19 3 3 5 16 9 30 9 13 0 24 4 24 8 0 5 -14 7 -30 4 -17 -2 -37 1 -45 8
-10 9 -15 9 -15 1 0 -6 5 -11 10 -11 6 0 10 -4 10 -10 0 -5 -8 -10 -19 -10
-14 0 -17 6 -14 23 3 14 -3 29 -16 41 -11 10 -17 24 -14 34 6 13 8 13 14 -4 7
-17 8 -16 8 6 2 49 28 69 42 32 l9 -22 20 20 c20 20 19 40 -1 40 -6 0 -8 -4
-5 -8 2 -4 -10 -6 -28 -4 -26 3 -34 -1 -43 -20 l-12 -23 0 26 c-1 23 4 27 39
32 48 6 70 22 70 50 0 18 -5 19 -45 14 -24 -4 -47 -2 -50 3 -3 5 -12 7 -21 3
-11 -4 -12 -9 -3 -19 6 -8 15 -12 19 -9 5 3 11 2 14 -3 6 -11 -31 -43 -47 -41
-22 4 -46 -12 -40 -27 8 -21 -21 -17 -42 6 -10 11 -13 20 -8 20 6 0 13 -7 17
-15 3 -8 10 -15 16 -15 14 0 -7 40 -29 57 -13 10 -13 12 -2 13 8 0 19 -7 26
-17 7 -9 17 -13 23 -9 7 4 0 17 -20 35 -28 25 -37 27 -85 24 -43 -3 -53 -1
-53 11 0 12 11 16 46 16 38 0 44 3 35 13 -6 8 -7 17 -3 21 4 4 8 12 8 17 3 22
7 22 11 2 2 -13 9 -23 14 -23z m69 -16 c0 -8 -5 -12 -10 -9 -6 4 -8 11 -5 16
9 14 15 11 15 -7z m199 -55 c-23 -14 -36 -10 -16 5 12 9 14 16 8 21 -6 3 -11
11 -11 18 0 6 7 1 16 -12 14 -19 14 -25 3 -32z m-1029 17 c-5 -13 -6 -27 -3
-30 4 -3 -1 -6 -9 -6 -9 0 -18 6 -21 13 -7 22 5 47 24 47 15 0 17 -4 9 -24z
m550 10 c0 -19 -27 -28 -33 -11 -7 15 1 25 20 25 7 0 13 -6 13 -14z m63 -6 c3
-13 0 -20 -9 -20 -8 0 -14 9 -14 20 0 11 4 20 9 20 5 0 11 -9 14 -20z m777 10
c0 -5 -2 -10 -4 -10 -3 0 -8 5 -11 10 -3 6 -1 10 4 10 6 0 11 -4 11 -10z m-65
-10 c3 -5 1 -10 -4 -10 -6 0 -11 5 -11 10 0 6 2 10 4 10 3 0 8 -4 11 -10z
m126 -59 c21 -7 21 -8 4 -15 -25 -9 -58 24 -49 49 7 17 8 17 15 -4 5 -12 18
-25 30 -30z m-491 30 c0 -6 -4 -13 -10 -16 -5 -3 -10 1 -10 9 0 9 5 16 10 16
6 0 10 -4 10 -9z m-1010 -17 c0 -8 -5 -12 -10 -9 -6 4 -8 11 -5 16 9 14 15 11
15 -7z m1150 -3 c0 -6 -4 -13 -10 -16 -5 -3 -10 1 -10 9 0 9 5 16 10 16 6 0
10 -4 10 -9z m-1071 -50 c0 -23 -1 -24 -9 -6 -7 17 -9 17 -9 3 -1 -11 -9 -18
-21 -18 -22 0 -25 12 -10 40 15 28 50 15 49 -19z m-99 19 c0 -5 -4 -10 -10
-10 -5 0 -10 5 -10 10 0 6 5 10 10 10 6 0 10 -4 10 -10z m1480 0 c0 -5 -4 -10
-10 -10 -5 0 -10 5 -10 10 0 6 5 10 10 10 6 0 10 -4 10 -10z m-127 -7 c-7 -2
-21 -2 -30 0 -10 3 -4 5 12 5 17 0 24 -2 18 -5z m-426 -60 c0 -32 3 -68 7 -80
5 -14 3 -23 -3 -23 -6 0 -11 6 -11 14 0 7 -6 19 -14 25 -14 12 -16 55 -3 68 4
3 7 17 7 30 0 13 4 23 8 23 5 0 9 -26 9 -57z m303 22 c0 -9 -6 -12 -16 -8 -13
5 -13 7 -2 14 17 11 18 11 18 -6z m70 -4 c0 -14 -26 -20 -41 -9 -11 8 -11 9 3
4 10 -3 20 -1 23 4 8 12 15 13 15 1z m-1259 -33 c11 -21 11 -22 -4 -9 -10 7
-17 17 -17 22 0 15 9 10 21 -13z m44 12 c3 -5 1 -10 -4 -10 -6 0 -11 5 -11 10
0 6 2 10 4 10 3 0 8 -4 11 -10z m1275 0 c0 -12 -28 -25 -36 -17 -9 9 6 27 22
27 8 0 14 -5 14 -10z m-52 -46 c-4 -3 -12 5 -18 18 -12 22 -12 22 6 6 10 -10
15 -20 12 -24z m-51 4 c-3 -8 -6 -5 -6 6 -1 11 2 17 5 13 3 -3 4 -12 1 -19z
m123 2 c0 -5 -5 -10 -11 -10 -5 0 -7 5 -4 10 3 6 8 10 11 10 2 0 4 -4 4 -10z
m-90 -35 c0 -18 -5 -25 -20 -25 -11 0 -20 5 -20 10 0 6 7 10 15 10 8 0 15 7
15 15 0 8 2 15 5 15 3 0 5 -11 5 -25z m38 -50 c3 -3 -11 -5 -31 -5 -24 0 -39
-6 -46 -17 -10 -17 -10 -17 -11 -1 0 9 8 22 18 27 16 10 59 8 70 -4z m-411 -1
c-3 -3 -12 -4 -19 -1 -8 3 -5 6 6 6 11 1 17 -2 13 -5z m461 -35 c-7 -4 -8 -14
-3 -25 21 -49 17 -75 -19 -110 -19 -19 -42 -34 -51 -34 -8 0 -15 -4 -15 -10 0
-5 -12 -10 -27 -9 -24 0 -25 1 -8 8 18 7 16 9 -11 15 -24 5 -33 15 -41 40 -12
39 4 70 31 60 11 -4 16 -1 16 13 0 32 37 58 77 54 22 -2 33 1 29 7 -8 14 17
22 26 8 4 -6 2 -14 -4 -17z m-440 -9 c2 -10 -6 -15 -21 -15 -18 0 -23 4 -19
18 5 21 35 19 40 -3z m797 0 c3 -5 1 -10 -4 -10 -6 0 -11 5 -11 10 0 6 2 10 4
10 3 0 8 -4 11 -10z m-548 -6 c-3 -4 1 -13 9 -21 13 -14 13 -17 -1 -33 -8 -9
-14 -23 -11 -31 11 -37 15 -79 6 -79 -6 0 -10 18 -10 40 0 27 -7 47 -20 60
-11 11 -20 23 -20 27 0 11 32 43 43 43 6 0 8 -3 4 -6z m-93 -19 c-4 -8 -15
-15 -26 -15 -17 0 -18 3 -8 15 7 8 19 15 26 15 8 0 11 -6 8 -15z m136 -1 c0
-8 -4 -12 -10 -9 -5 3 -10 10 -10 16 0 5 5 9 10 9 6 0 10 -7 10 -16z m590 -49
c0 -14 -29 -29 -38 -20 -3 3 0 5 7 5 8 0 11 6 7 15 -21 51 -21 51 2 31 12 -11
22 -25 22 -31z m-90 0 c10 -12 10 -15 -1 -15 -8 -1 -3 -7 11 -15 25 -15 25
-15 -12 -13 -31 2 -38 6 -38 23 0 36 19 45 40 20z m-567 -42 c4 -21 2 -42 -3
-47 -7 -7 -10 -4 -10 6 0 8 -3 30 -6 47 -4 18 -2 31 3 31 6 0 13 -17 16 -37z
m213 -40 c-10 -10 -19 5 -10 18 6 11 8 11 12 0 2 -7 1 -15 -2 -18z m-289 0 c2
-6 -5 -13 -16 -16 -18 -4 -19 0 -12 31 2 8 25 -5 28 -15z m521 -28 c-2 -14 -9
-19 -23 -17 -26 5 -29 8 -22 26 9 23 48 16 45 -9z m-1745 -25 c3 -11 1 -20 -4
-20 -5 0 -9 2 -9 4 0 2 -3 11 -6 20 -3 9 -2 16 4 16 5 0 12 -9 15 -20z m24
-32 c-3 -8 -6 -5 -6 6 -1 11 2 17 5 13 3 -3 4 -12 1 -19z m-17 -29 c0 -5 -4
-9 -10 -9 -5 0 -10 7 -10 16 0 8 5 12 10 9 6 -3 10 -10 10 -16z m-43 -21 c-3
-8 -6 -5 -6 6 -1 11 2 17 5 13 3 -3 4 -12 1 -19z m47 -23 c-7 -17 -34 -21 -34
-4 0 5 4 8 9 4 5 -3 12 -1 16 5 9 15 15 12 9 -5z m-64 -5 c0 -5 -4 -10 -10
-10 -5 0 -10 5 -10 10 0 6 5 10 10 10 6 0 10 -4 10 -10z m134 -15 c3 -10 -3
-17 -20 -21 -26 -7 -37 -2 -40 19 -2 17 53 19 60 2z m1456 -3 c0 -8 6 -12 15
-8 8 3 15 1 15 -4 0 -16 -21 -22 -35 -10 -12 10 -15 9 -15 -3 0 -13 -5 -13
-30 -4 -49 19 -39 47 16 45 22 -1 34 -6 34 -16z m-140 -137 c0 -2 -10 -9 -22
-15 -22 -11 -22 -10 -4 4 21 17 26 19 26 11z m-1167 -22 c-7 -2 -21 -2 -30 0
-10 3 -4 5 12 5 17 0 24 -2 18 -5z m7 -33 c0 -5 -2 -10 -4 -10 -3 0 -8 5 -11
10 -3 6 -1 10 4 10 6 0 11 -4 11 -10z m1030 -45 c-14 -17 -30 -20 -30 -6 0 5
8 12 18 14 9 3 19 5 21 6 2 0 -2 -6 -9 -14z m-332 -85 c4 -23 -55 -23 -61 -1
-3 14 3 17 27 17 19 -1 32 -7 34 -16z m-374 -5 c4 -11 -2 -15 -24 -15 -17 0
-30 5 -30 10 0 16 -22 12 -35 -6 -10 -14 -14 -15 -33 -3 -12 8 -22 16 -22 19
0 3 31 6 69 8 54 2 70 -1 75 -13z m470 -47 c-4 -5 -19 -8 -35 -6 -16 3 -31 0
-33 -6 -3 -7 -8 -5 -15 4 -9 12 -3 16 32 20 47 6 60 3 51 -12z m-90 -26 c8
-14 -41 -35 -61 -28 -17 7 -17 8 1 22 22 16 52 19 60 6z m49 -16 c-15 -14 -30
-20 -32 -15 -4 12 28 38 47 39 7 0 0 -11 -15 -24z m-366 -71 c8 -9 13 -18 11
-21 -3 -2 -13 5 -23 16 -21 23 -11 27 12 5z m93 0 c0 -8 -6 -15 -14 -15 -17 0
-28 14 -19 24 12 12 33 6 33 -9z m0 -43 c0 -5 -7 -9 -15 -9 -8 0 -12 4 -9 9 3
4 9 8 15 8 5 0 9 -4 9 -8z m-10 -52 c0 -5 -4 -10 -9 -10 -6 0 -13 5 -16 10 -3
6 1 10 9 10 9 0 16 -4 16 -10z"/>
<path d="M6400 5530 c0 -5 7 -10 16 -10 8 0 12 5 9 10 -3 6 -10 10 -16 10 -5
0 -9 -4 -9 -10z"/>
<path d="M7048 4773 c7 -3 16 -2 19 1 4 3 -2 6 -13 5 -11 0 -14 -3 -6 -6z"/>
<path d="M7000 4714 c0 -8 5 -12 10 -9 6 3 10 10 10 16 0 5 -4 9 -10 9 -5 0
-10 -7 -10 -16z"/>
<path d="M7072 4693 c-8 -18 -9 -30 -2 -37 7 -7 10 -3 10 11 0 12 5 25 10 28
12 7 13 25 3 25 -5 0 -14 -12 -21 -27z"/>
<path d="M7135 4669 c-4 -6 -4 -13 -1 -16 8 -8 36 5 36 17 0 13 -27 13 -35 -1z"/>
<path d="M7090 4620 c0 -5 5 -10 11 -10 5 0 7 5 4 10 -3 6 -8 10 -11 10 -2 0
-4 -4 -4 -10z"/>
<path d="M7282 4505 c-11 -13 -9 -15 8 -15 11 0 20 7 20 15 0 19 -11 19 -28 0z"/>
<path d="M6939 5261 l-23 -19 42 -21 c23 -12 42 -26 42 -32 0 -8 5 -7 15 1 20
17 11 28 -35 40 -22 6 -40 16 -40 21 0 6 7 8 16 5 8 -3 13 -2 9 3 -3 5 1 12 7
14 8 4 9 6 2 6 -7 1 -22 -7 -35 -18z"/>
<path d="M6753 5243 c-11 -23 -10 -29 8 -46 20 -19 20 -19 26 2 3 12 9 21 14
21 5 0 9 7 9 15 0 9 -6 12 -15 9 -9 -4 -15 0 -15 10 0 24 -14 19 -27 -11z"/>
<path d="M6993 5243 c9 -9 19 -14 23 -11 10 10 -6 28 -24 28 -15 0 -15 -1 1
-17z"/>
<path d="M6867 5234 c-4 -4 -7 -14 -7 -23 0 -11 3 -12 11 -4 6 6 10 16 7 23
-2 6 -7 8 -11 4z"/>
<path d="M6440 5165 c0 -15 4 -24 10 -20 6 3 10 12 10 20 0 8 -4 17 -10 20 -6
4 -10 -5 -10 -20z"/>
<path d="M6920 5181 c0 -9 30 -24 36 -18 2 1 -6 8 -16 15 -11 7 -20 8 -20 3z"/>
<path d="M7030 5177 c-24 -19 -52 -67 -46 -80 3 -8 5 -6 6 3 1 18 35 60 48 60
5 0 12 7 16 15 7 18 -3 19 -24 2z"/>
<path d="M3830 5151 c0 -6 4 -13 10 -16 6 -3 7 1 4 9 -7 18 -14 21 -14 7z"/>
<path d="M6522 5147 c-18 -21 -33 -67 -22 -67 5 0 12 11 16 25 3 14 10 25 14
25 4 0 10 7 14 15 7 18 -8 20 -22 2z"/>
<path d="M6890 5125 c7 -8 17 -15 22 -15 6 0 5 7 -2 15 -7 8 -17 15 -22 15 -6
0 -5 -7 2 -15z"/>
<path d="M6427 5113 c-4 -3 -7 -11 -7 -17 0 -6 5 -5 12 2 6 6 9 14 7 17 -3 3
-9 2 -12 -2z"/>
<path d="M6575 5080 c-3 -11 -10 -20 -15 -20 -4 0 -10 -7 -14 -15 -4 -12 -2
-13 14 -3 16 10 22 8 40 -13 19 -20 21 -21 15 -4 -3 11 -9 32 -12 48 -6 32
-19 35 -28 7z"/>
<path d="M7050 5085 c0 -2 10 -10 23 -16 20 -11 21 -11 8 4 -13 16 -31 23 -31
12z"/>
<path d="M6691 5015 c-13 -20 -21 -38 -18 -42 8 -7 50 44 53 64 4 23 -10 14
-35 -22z"/>
<path d="M7010 5043 c0 -13 69 -53 74 -44 3 5 -6 12 -19 15 -16 4 -23 11 -19
18 4 7 3 8 -4 4 -7 -4 -12 -2 -12 3 0 6 -4 11 -10 11 -5 0 -10 -3 -10 -7z"/>
<path d="M7171 4994 c0 -11 3 -14 6 -6 3 7 2 16 -1 19 -3 4 -6 -2 -5 -13z"/>
<path d="M7118 4969 c-3 -8 2 -20 9 -28 20 -19 24 -10 9 18 -9 17 -15 20 -18
10z"/>
<path d="M5871 4580 c-6 -19 -6 -30 0 -30 5 0 2 -11 -7 -26 -13 -19 -14 -28
-5 -37 17 -17 33 10 28 46 -3 23 0 26 15 21 10 -3 18 -1 18 5 0 6 -4 11 -10
11 -5 0 -10 9 -10 20 0 30 -17 24 -29 -10z"/>
<path d="M3530 4523 c0 -5 9 -19 20 -33 11 -14 20 -30 20 -37 0 -6 6 -18 13
-25 7 -7 23 -31 37 -53 13 -22 52 -83 87 -136 35 -53 63 -99 63 -102 0 -4 16
-29 35 -56 19 -26 35 -52 35 -55 0 -4 10 -22 23 -39 34 -49 47 -70 53 -89 4
-10 10 -18 15 -18 5 0 9 -5 9 -11 0 -7 7 -17 16 -24 16 -11 95 -134 280 -430
48 -77 91 -141 95 -143 5 -2 9 -8 9 -14 0 -6 18 -37 40 -69 22 -32 40 -63 40
-69 0 -5 4 -10 9 -10 5 0 12 -8 15 -18 6 -16 65 -114 83 -137 5 -5 28 -44 53
-85 24 -41 47 -77 51 -80 8 -6 48 -72 83 -133 23 -43 25 -53 16 -85 -23 -84 0
-205 54 -290 26 -41 96 -109 138 -135 45 -28 110 -47 183 -53 58 -5 82 -2 135
17 80 27 107 44 166 99 57 54 110 159 119 238 13 116 -31 237 -119 327 -66 68
-140 104 -233 112 l-68 5 -90 92 c-49 50 -180 186 -290 301 -110 115 -216 225
-235 244 -43 43 -362 384 -475 507 -44 47 -102 110 -130 139 -326 343 -355
372 -355 348z m1726 -1754 c142 -68 210 -234 157 -382 -26 -73 -102 -151 -171
-177 -222 -84 -439 78 -419 312 7 78 24 119 74 177 82 96 242 127 359 70z"/>
<path d="M5035 2702 c-180 -86 -179 -343 2 -419 18 -7 61 -13 97 -13 55 0 70
4 112 33 147 97 135 313 -21 394 -47 25 -143 27 -190 5z"/>
<path d="M7850 4379 c-64 -52 -199 -149 -208 -149 -6 0 -12 -4 -14 -8 -1 -4
-25 -23 -53 -42 -27 -19 -61 -45 -75 -57 -13 -13 -28 -23 -32 -23 -3 0 -13 -6
-20 -13 -12 -11 -187 -140 -241 -177 -24 -17 -159 -114 -240 -173 -29 -21 -63
-46 -77 -55 -14 -9 -27 -19 -30 -22 -3 -4 -27 -21 -55 -40 -27 -19 -52 -37
-55 -40 -3 -3 -27 -22 -55 -40 -51 -35 -75 -55 -75 -63 0 -3 19 -36 42 -73
143 -235 236 -519 258 -781 5 -63 11 -117 13 -119 2 -2 356 -4 788 -4 l784 -1
-2 123 c-4 345 -119 845 -271 1178 -38 85 -161 331 -184 370 -61 102 -151 230
-161 230 -7 -1 -23 -10 -37 -21z m49 -93 c14 -15 21 -33 19 -50 -4 -36 -22
-37 -28 -2 -9 52 -28 41 -22 -13 4 -48 3 -50 -23 -57 -50 -12 -98 65 -60 96
12 10 16 9 20 -2 3 -8 5 -19 4 -24 -3 -20 2 -32 17 -38 14 -5 15 0 10 38 -5
33 -3 47 9 60 22 21 27 20 54 -8z m71 -118 c6 -13 14 -30 18 -38 40 -71 40
-75 0 -117 l-31 -32 50 6 c34 4 53 2 58 -6 10 -18 6 -19 -73 -29 -58 -7 -72
-6 -77 6 -6 15 19 54 59 91 29 27 33 41 12 41 -7 0 -19 14 -26 30 -7 17 -19
30 -26 30 -12 0 -12 -5 1 -30 8 -16 15 -34 15 -40 0 -20 -27 -10 -38 15 -12
25 -26 32 -36 17 -2 -4 2 -22 11 -40 16 -33 13 -49 -6 -37 -16 10 -53 86 -46
93 13 13 100 61 113 61 7 1 17 -9 22 -21z m133 -263 c9 -20 17 -42 17 -50 0
-27 -21 -15 -36 20 -8 19 -19 35 -25 35 -11 0 -8 -29 6 -62 5 -13 2 -18 -9
-18 -9 0 -21 11 -26 25 -5 14 -14 25 -19 25 -19 0 -22 -20 -6 -49 15 -30 6
-51 -13 -28 -11 14 -42 74 -42 82 0 8 102 54 121 55 8 0 23 -16 32 -35z m53
-131 c21 -56 11 -79 -33 -79 -20 0 -37 -8 -51 -25 -19 -23 -21 -23 -28 -7 -4
12 1 29 15 47 28 38 27 42 -11 38 -53 -5 -40 23 22 48 30 13 58 23 62 24 3 0
14 -21 24 -46z m-327 -18 c27 -107 7 -132 -62 -75 -49 40 -64 34 -31 -14 24
-36 27 -76 4 -62 -15 9 -60 82 -60 97 0 7 14 19 30 27 26 11 34 11 55 -3 34
-22 35 -21 28 29 -5 36 -3 45 9 45 10 0 20 -16 27 -44z m383 -123 c9 -27 14
-51 11 -55 -9 -16 -20 -7 -29 24 -11 38 -40 53 -32 17 3 -13 7 -30 9 -38 8
-29 -22 -22 -32 8 -14 40 -44 43 -35 4 11 -47 11 -56 1 -59 -13 -5 -47 88 -36
99 9 9 101 46 117 47 6 0 18 -21 26 -47z m-263 -94 c43 -15 39 -36 -13 -58
-24 -11 -46 -26 -49 -35 -5 -12 -14 -15 -34 -10 -40 9 -52 23 -31 35 17 9 17
12 3 40 -9 16 -13 34 -9 40 7 12 83 5 133 -12z m289 -5 c-2 -9 -23 -24 -48
-33 -25 -10 -44 -22 -43 -27 1 -5 5 -22 8 -37 12 -45 -22 -35 -34 11 -16 56
-15 58 42 80 64 25 79 27 75 6z m24 -123 l-22 -30 30 -6 c17 -4 30 -13 30 -22
0 -11 -7 -13 -32 -7 -18 5 -52 7 -75 6 -48 -2 -57 13 -17 28 14 6 40 26 57 45
38 44 63 31 29 -14z m-256 21 c22 -14 26 -51 8 -81 -14 -24 -28 -32 -68 -39
-75 -13 -107 12 -92 72 10 39 115 73 152 48z m-86 -182 c0 -21 -24 -28 -35
-10 -8 14 3 30 21 30 8 0 14 -9 14 -20z m405 -15 c47 -46 22 -111 -46 -121
-87 -14 -112 108 -29 139 31 11 52 6 75 -18z m-270 -17 c20 -9 25 -18 25 -48
0 -49 -18 -63 -90 -68 -53 -4 -59 -2 -75 21 -14 23 -15 30 -3 54 20 43 93 64
143 41z m319 -156 c11 -53 3 -72 -30 -72 -15 0 -35 -7 -45 -16 -22 -20 -59 -3
-59 27 0 11 -5 30 -11 41 -8 15 -8 23 0 32 12 11 107 35 126 32 6 -2 14 -21
19 -44z m20 -114 c3 -7 7 -32 10 -55 5 -34 3 -43 -9 -43 -8 0 -15 9 -15 19 0
26 -10 51 -21 51 -5 0 -9 -16 -9 -35 0 -43 -18 -46 -26 -5 -10 46 -34 38 -34
-11 0 -28 -4 -39 -12 -37 -15 5 -28 97 -16 105 8 4 84 19 116 22 7 0 14 -5 16
-11z m-74 -146 c0 -10 -5 -23 -12 -30 -9 -9 -8 -16 5 -29 13 -14 17 -14 20 -2
17 60 25 74 40 77 31 6 58 -26 51 -62 -6 -39 -20 -54 -35 -39 -8 8 -8 17 1 32
11 22 6 41 -11 41 -5 0 -9 -12 -9 -26 0 -53 -29 -75 -74 -58 -28 11 -15 114
14 114 6 0 10 -8 10 -18z m114 -128 c9 -24 7 -92 -3 -98 -11 -7 -21 17 -21 50
0 15 -6 24 -15 24 -11 0 -15 -11 -15 -40 0 -22 -4 -40 -10 -40 -5 0 -10 12
-10 28 0 15 -4 33 -9 41 -15 23 -31 2 -31 -40 0 -21 -4 -39 -10 -39 -13 0 -22
40 -18 81 3 33 4 34 58 40 30 3 60 6 66 7 7 1 15 -5 18 -14z"/>
<path d="M8105 3770 c-9 -14 15 -54 26 -43 10 10 1 53 -12 53 -4 0 -11 -4 -14
-10z"/>
<path d="M7860 3514 c0 -16 18 -18 38 -5 10 6 7 10 -12 13 -18 4 -26 1 -26 -8z"/>
<path d="M7912 3385 c-38 -17 -38 -42 -1 -37 36 4 90 32 84 43 -9 13 -45 11
-83 -6z"/>
<path d="M8242 3211 c-8 -4 -12 -19 -10 -32 6 -45 88 -34 88 11 0 27 -49 40
-78 21z"/>
<path d="M7973 3179 c-46 -13 -44 -39 3 -39 42 0 74 15 74 35 0 17 -28 18 -77
4z"/>
<path d="M8322 3049 c1 -12 9 -24 16 -27 9 -3 13 3 10 19 -1 12 -9 24 -16 27
-9 3 -13 -3 -10 -19z"/>
<path d="M8264 3045 c-8 -19 2 -45 16 -45 5 0 10 14 10 30 0 31 -16 41 -26 15z"/>
<path d="M6140 3971 c0 -13 41 -41 58 -41 22 0 8 25 -16 28 -12 2 -22 8 -22
13 0 5 -4 9 -10 9 -5 0 -10 -4 -10 -9z"/>
<path d="M6580 3660 c0 -5 4 -10 9 -10 6 0 13 5 16 10 3 6 -1 10 -9 10 -9 0
-16 -4 -16 -10z"/>
<path d="M1455 1909 c-95 -9 -148 -24 -228 -66 -122 -64 -219 -202 -252 -360
-17 -81 -19 -226 -4 -309 16 -93 78 -211 145 -277 208 -206 598 -210 862 -9
l32 24 0 214 0 214 -240 0 -240 0 0 -70 0 -70 168 -2 167 -3 3 -85 c2 -47 0
-95 -3 -107 -11 -45 -177 -118 -293 -129 -156 -15 -317 56 -389 170 -111 174
-90 479 43 626 80 88 238 136 370 111 128 -23 200 -78 244 -185 13 -31 29 -55
34 -53 6 2 35 10 64 18 52 13 54 14 48 44 -3 16 -20 58 -36 92 -77 156 -259
234 -495 212z"/>
<path d="M4177 1894 c-4 -4 -7 -95 -7 -201 l0 -194 -46 35 c-123 94 -290 85
-407 -23 -90 -84 -140 -253 -120 -412 27 -209 150 -344 325 -357 92 -6 148 11
209 65 l49 45 0 -46 0 -46 65 0 65 0 -2 568 -3 567 -60 3 c-34 2 -64 0 -68 -4z
m-127 -434 c47 -24 74 -55 102 -115 20 -44 23 -65 23 -185 0 -131 -1 -136 -30
-189 -75 -137 -219 -159 -327 -52 -60 60 -80 125 -79 260 0 143 40 239 114
278 69 35 130 36 197 3z"/>
<path d="M4707 1798 c-44 -59 -73 -106 -68 -111 4 -4 40 -5 79 -1 l71 7 38 58
c20 33 40 59 43 59 3 0 22 -27 44 -60 l38 -60 80 0 79 0 -83 103 -84 102 -79
2 -80 2 -78 -101z"/>
<path d="M7738 1828 l-68 -40 0 -104 0 -104 -50 0 -50 0 0 -55 0 -55 49 0 50
0 3 -307 c3 -348 5 -356 79 -393 33 -17 55 -20 127 -18 l87 3 -3 40 c-5 81 -7
83 -62 82 -35 -1 -55 5 -70 18 -19 17 -20 29 -20 297 l0 278 70 0 70 0 0 55 0
55 -70 0 -69 0 -3 144 -3 144 -67 -40z"/>
<path d="M2443 1585 c-166 -45 -260 -176 -271 -377 -11 -219 60 -363 217 -437
50 -23 68 -26 166 -26 105 0 114 2 177 33 81 40 148 110 180 190 20 50 22 75
23 202 0 138 -1 148 -28 205 -38 81 -70 120 -130 160 -92 61 -222 80 -334 50z
m217 -125 c48 -25 85 -65 112 -125 20 -43 23 -66 23 -160 0 -80 -5 -124 -18
-161 -19 -55 -69 -114 -118 -140 -43 -22 -117 -28 -169 -14 -59 15 -140 97
-158 158 -32 107 -24 260 18 343 56 109 199 155 310 99z"/>
<path d="M3345 1580 c-22 -11 -53 -39 -70 -61 -16 -22 -31 -35 -32 -27 -1 7
-4 30 -8 51 l-6 37 -59 0 -60 0 0 -410 0 -410 69 0 70 0 3 278 c3 242 6 282
22 320 36 82 107 115 187 88 24 -9 47 -12 50 -8 14 16 41 102 36 115 -7 18
-89 47 -131 47 -17 0 -49 -9 -71 -20z"/>
<path d="M4767 1590 c-101 -26 -199 -104 -241 -194 -46 -97 -58 -234 -31 -359
27 -128 92 -212 205 -266 49 -23 67 -26 165 -26 105 0 114 2 177 33 82 40 159
121 182 190 40 119 38 293 -4 405 -31 82 -114 166 -195 196 -67 26 -197 36
-258 21z m200 -127 c41 -19 100 -84 120 -132 21 -49 29 -215 13 -279 -58 -243
-363 -273 -450 -45 -40 106 -35 260 12 352 57 109 193 156 305 104z"/>
<path d="M5720 1591 c-49 -16 -96 -44 -132 -79 l-38 -36 0 52 0 52 -65 0 -65
0 0 -410 0 -410 69 0 69 0 4 278 c3 256 5 280 24 322 38 82 121 128 207 117
51 -7 80 -28 103 -74 17 -35 19 -62 18 -340 l-1 -303 68 0 67 0 4 278 c4 297
8 323 61 381 76 83 221 78 272 -9 19 -33 20 -55 23 -342 l4 -308 64 0 64 0 0
323 c0 364 -4 389 -68 452 -69 67 -201 83 -305 37 -26 -11 -67 -41 -91 -67
l-45 -46 -15 28 c-18 35 -51 66 -95 88 -37 19 -162 29 -201 16z"/>
<path d="M6989 1587 c-177 -50 -279 -204 -279 -421 0 -198 71 -326 218 -394
111 -51 292 -40 392 23 72 46 160 180 134 204 -5 5 -36 12 -69 16 l-60 6 -25
-48 c-32 -61 -96 -110 -156 -119 -143 -21 -263 76 -289 234 l-7 42 311 0 311
0 0 56 c0 178 -85 323 -225 385 -58 26 -193 34 -256 16z m162 -108 c88 -19
169 -119 169 -208 0 -21 -2 -21 -231 -21 l-231 0 7 37 c18 96 88 171 180 194
43 10 49 10 106 -2z"/>
<path d="M8325 1581 c-25 -11 -54 -37 -75 -67 l-35 -49 -3 58 -3 57 -59 0 -60
0 0 -410 0 -410 70 0 70 0 0 258 c0 285 9 344 56 394 40 41 95 53 153 34 25
-8 49 -12 52 -8 13 16 40 104 36 116 -7 17 -90 46 -131 46 -17 0 -49 -9 -71
-19z"/>
<path d="M8842 1584 c-173 -46 -272 -200 -272 -421 0 -190 75 -324 219 -392
50 -23 68 -26 166 -26 98 0 116 3 167 27 81 38 150 105 184 181 25 55 28 76
32 189 4 109 1 136 -17 195 -11 37 -37 89 -56 115 -89 121 -264 175 -423 132z
m219 -125 c44 -22 93 -77 115 -127 21 -49 30 -202 15 -273 -32 -154 -169 -241
-308 -195 -52 17 -109 68 -136 122 -56 111 -42 319 29 411 65 85 186 112 285
62z"/>
</g>
</svg>
