<svg xmlns="http://www.w3.org/2000/svg" xmlns:xlink="http://www.w3.org/1999/xlink" width="500" zoomAndPan="magnify" viewBox="0 0 375 374.999991" height="500" preserveAspectRatio="xMidYMid meet" version="1.0"><defs><g/><clipPath id="08dba2f16b"><path d="M 327 72 L 335.222656 72 L 335.222656 316 L 327 316 Z M 327 72 " clip-rule="nonzero"/></clipPath><clipPath id="8df55c3191"><path d="M 39.777344 72 L 48 72 L 48 316 L 39.777344 316 Z M 39.777344 72 " clip-rule="nonzero"/></clipPath><clipPath id="a693febb80"><path d="M 66 46.460938 L 309 46.460938 L 309 55 L 66 55 Z M 66 46.460938 " clip-rule="nonzero"/></clipPath><clipPath id="c48234063c"><path d="M 66 333 L 309 333 L 309 341.902344 L 66 341.902344 Z M 66 333 " clip-rule="nonzero"/></clipPath><clipPath id="532c85e531"><path d="M 308 46.460938 L 335.222656 46.460938 L 335.222656 73 L 308 73 Z M 308 46.460938 " clip-rule="nonzero"/></clipPath><clipPath id="2bdb105396"><path d="M 39.777344 46.460938 L 67 46.460938 L 67 73 L 39.777344 73 Z M 39.777344 46.460938 " clip-rule="nonzero"/></clipPath><clipPath id="5f56642026"><path d="M 308 315 L 335.222656 315 L 335.222656 341.902344 L 308 341.902344 Z M 308 315 " clip-rule="nonzero"/></clipPath><clipPath id="0c2663f15c"><path d="M 39.777344 315 L 67 315 L 67 341.902344 L 39.777344 341.902344 Z M 39.777344 315 " clip-rule="nonzero"/></clipPath><clipPath id="3aa359f34a"><path d="M 38.878906 45.558594 L 335.878906 45.558594 L 335.878906 342.558594 L 38.878906 342.558594 Z M 38.878906 45.558594 " clip-rule="nonzero"/></clipPath></defs><g clip-path="url(#08dba2f16b)"><path fill="#000000" d="M 327.230469 72.796875 L 336.113281 72.796875 L 336.113281 315.558594 L 327.230469 315.558594 Z M 327.230469 72.796875 " fill-opacity="1" fill-rule="nonzero"/></g><g clip-path="url(#8df55c3191)"><path fill="#000000" d="M 38.878906 72.796875 L 47.761719 72.796875 L 47.761719 315.558594 L 38.878906 315.558594 Z M 38.878906 72.796875 " fill-opacity="1" fill-rule="nonzero"/></g><g clip-path="url(#a693febb80)"><path fill="#000000" d="M 66.117188 45.558594 L 308.875 45.558594 L 308.875 54.441406 L 66.117188 54.441406 Z M 66.117188 45.558594 " fill-opacity="1" fill-rule="nonzero"/></g><g clip-path="url(#c48234063c)"><path fill="#000000" d="M 66.117188 333.910156 L 308.875 333.910156 L 308.875 342.792969 L 66.117188 342.792969 Z M 66.117188 333.910156 " fill-opacity="1" fill-rule="nonzero"/></g><g clip-path="url(#532c85e531)"><path fill="#000000" d="M 327.230469 54.441406 L 327.230469 72.796875 L 336.113281 72.796875 L 336.113281 45.558594 L 308.875 45.558594 L 308.875 54.441406 Z M 327.230469 54.441406 " fill-opacity="1" fill-rule="nonzero"/></g><g clip-path="url(#2bdb105396)"><path fill="#000000" d="M 47.761719 54.441406 L 66.117188 54.441406 L 66.117188 45.558594 L 38.878906 45.558594 L 38.878906 72.796875 L 47.761719 72.796875 Z M 47.761719 54.441406 " fill-opacity="1" fill-rule="nonzero"/></g><g clip-path="url(#5f56642026)"><path fill="#000000" d="M 327.230469 333.910156 L 308.875 333.910156 L 308.875 342.792969 L 336.113281 342.792969 L 336.113281 315.558594 L 327.230469 315.558594 Z M 327.230469 333.910156 " fill-opacity="1" fill-rule="nonzero"/></g><g clip-path="url(#0c2663f15c)"><path fill="#000000" d="M 47.761719 333.910156 L 47.761719 315.558594 L 38.878906 315.558594 L 38.878906 342.792969 L 66.117188 342.792969 L 66.117188 333.910156 Z M 47.761719 333.910156 " fill-opacity="1" fill-rule="nonzero"/></g><g clip-path="url(#3aa359f34a)"><path stroke-linecap="butt" transform="matrix(0.75, 0, 0, 0.75, 38.8789, 45.55901)" fill="none" stroke-linejoin="miter" d="M 0.00000883073 -0.000554744 L 0.00000883073 396.311971 L 396.312535 396.311971 L 396.312535 -0.000554744 L 0.00000883073 -0.000554744 " stroke="#000000" stroke-width="10" stroke-opacity="1" stroke-miterlimit="4"/></g><g fill="#ffffff" fill-opacity="1"><g transform="translate(176.671678, 367.800418)"><g><path d="M 46.953125 -67.96875 C 46.953125 -54.78125 49.628906 -44.546875 54.984375 -37.265625 C 60.347656 -29.992188 68.929688 -26.359375 80.734375 -26.359375 C 92.265625 -26.359375 100.707031 -29.992188 106.0625 -37.265625 C 111.425781 -44.546875 114.109375 -54.78125 114.109375 -67.96875 L 114.109375 -288.34375 L 144.171875 -288.34375 L 144.171875 -69.609375 C 144.171875 -47.640625 138.953125 -29.992188 128.515625 -16.671875 C 118.078125 -3.359375 101.738281 3.296875 79.5 3.296875 C 57.53125 3.296875 41.328125 -3.359375 30.890625 -16.671875 C 20.453125 -29.992188 15.234375 -47.640625 15.234375 -69.609375 L 15.234375 -288.34375 L 46.953125 -288.34375 Z M 46.953125 -67.96875 "/></g></g></g><g fill="#000000" fill-opacity="1"><g transform="translate(38.8789, 294.9409)"><g><path d="M 40.703125 -287.78125 L 87.5625 -37.40625 L 134.03125 -287.78125 L 163.625 -287.78125 L 109.765625 0 L 62.484375 0 L 8.21875 -287.78125 Z M 40.703125 -287.78125 "/></g></g></g></svg>